<svg xmlns="http://www.w3.org/2000/svg" viewBox="0 0 1440 320" preserveAspectRatio="none">
  <path fill="#A1D6E2" fill-opacity="10" d="M0,64L21.8,69.3C43.6,75,87,85,131,128C174.5,171,218,245,262,240C305.5,235,349,149,393,133.3C436.4,117,480,171,524,170.7C567.3,171,611,117,655,122.7C698.2,128,742,192,785,229.3C829.1,267,873,277,916,250.7C960,224,1004,160,1047,144C1090.9,128,1135,160,1178,181.3C1221.8,203,1265,213,1309,208C1352.7,203,1396,181,1418,170.7L1440,160L1440,320L1418.2,320C1396.4,320,1353,320,1309,320C1265.5,320,1222,320,1178,320C1134.5,320,1091,320,1047,320C1003.6,320,960,320,916,320C872.7,320,829,320,785,320C741.8,320,698,320,655,320C610.9,320,567,320,524,320C480,320,436,320,393,320C349.1,320,305,320,262,320C218.2,320,175,320,131,320C87.3,320,44,320,22,320L0,320Z"></path>
</svg>
